<?xml version="1.0" encoding="utf-8"?>
<!-- Generator: Adobe Illustrator 19.0.0, SVG Export Plug-In . SVG Version: 6.00 Build 0)  -->
<!DOCTYPE svg PUBLIC "-//W3C//DTD SVG 1.1//EN" "http://www.w3.org/Graphics/SVG/1.1/DTD/svg11.dtd">
<svg version="1.1" id="Layer_1" xmlns="http://www.w3.org/2000/svg" xmlns:xlink="http://www.w3.org/1999/xlink" x="0px" y="0px"
	 viewBox="13 13 50 50" style="enable-background:new 13 13 50 50;" xml:space="preserve">
<path d="M38,15.8c12.2,0,22.2,9.9,22.2,22.2S50.2,60.2,38,60.2S15.8,50.2,15.8,38S25.8,15.8,38,15.8z M38,19c-1,0-1.9,0.1-2.8,0.2
	c-0.2,0.4-0.3,0.9-0.3,1.4c0,1.6-1.6-1.6-3.2,1.6c-1.6,3.2,0,0,0,3.2c0,1.6-2.3,0.4-1.6,0.8c1.6,0.8,1.6,0.8,0,2.4
	c0,0-3.2-1.6-3.2,0s-1.6,1.6-3.2,1.6s0,3.2-1.6,3.2c-1.2,0-0.6-1.9-1.6-2.7c-0.4,0.9-0.7,1.9-1,3c1.1,1,1.2,4.7,2.6,6.1
	c1.6-1.6,1.6,0,3.2,0c1.6,0,1.6,0,2.4,1.6c1.6,0,2.4,1.6,4,3.2c1.6,1.6,4.7,1.6,4.7,3.2s-1.6,0-1.6,3.2c0,1.6,0,1.6-1.6,1.6
	c-1,0-2,1.9-2.6,3.3c2.3,0.9,4.7,1.5,7.3,1.5c5.3,0,10.1-2.2,13.6-5.7l-0.9-1.8c0,0,2-3.2,0.4-4.8c-1.6-1.6-1.6-3.2-1.6-3.2
	s-3.2,3.2-4.8,1.6c-1.6-1.6-1.6,0-3.2-3.2c-1.6-3.2,1.6-4.8,1.6-4.8s0-3.2,1.6-3.2c1.6,0,3.2-3.2,6.3,0c0,0,1.8-1.2,4.4-1.5
	c-0.8-1.9-1.9-3.6-3.3-5.2c-0.3,0.2-0.7,0.4-1.1,0.4c-1.6,0,1.6,3.2,0,3.2c-1.6,0-1.6-1.6-3.2-1.6c-1.6,0-1.6,1.6-3.2,3.2
	c-1.6,1.6,0,0-1.6-1.6c-1.6-1.6,3.2,0,1.6-1.6c-1.6-1.6,1.6-1.6,1.6-3.2c0-1.2,1.9-1.5,2.8-1.6c-0.9-0.7-1.9-1.2-2.8-1.6
	c1.6,1.6-1.6,3.2-3.2,3.2c-1.5,0-0.2-2.8,0-4.4C41.5,19.2,39.8,19,38,19z M19,38c0,5.6,2.4,10.6,6.3,14.1l-1.5-3
	c-1.6,0-2.4-3.6-2.4-5.1c0-1.3-0.5-2.3,0.1-3.5c-2.2-2.2-0.9-1-0.9-2.5c0-0.8-0.7-1.5-1.5-2.1C19,36.6,19,37.3,19,38z"/>
</svg>
