<?xml version="1.0" encoding="utf-8"?>
<!-- Generator: Adobe Illustrator 19.0.0, SVG Export Plug-In . SVG Version: 6.00 Build 0)  -->
<!DOCTYPE svg PUBLIC "-//W3C//DTD SVG 1.1//EN" "http://www.w3.org/Graphics/SVG/1.1/DTD/svg11.dtd">
<svg version="1.1" id="Edit" xmlns="http://www.w3.org/2000/svg" xmlns:xlink="http://www.w3.org/1999/xlink" x="0px" y="0px"
	 viewBox="-32 24 30 30" style="enable-background:new -32 24 30 30;" xml:space="preserve">
<style type="text/css">
	.st0{fill:#FFFFFF;}
</style>
<path class="st0" d="M-7.7,29.7c-1.8-1.8-3.1-1.5-3.1-1.5l-7.5,7.5l-8.4,8.4l-1.2,5.9l5.9-1.2l8.4-8.4l7.5-7.5
	C-6.1,32.8-5.9,31.4-7.7,29.7z M-22.3,47.9l-2,0.4c-0.2-0.4-0.4-0.7-0.9-1.2c-0.4-0.4-0.8-0.7-1.2-0.9l0.4-2l0.6-0.6
	c0,0,1.1,0,2.3,1.3c1.2,1.2,1.3,2.3,1.3,2.3L-22.3,47.9z"/>
</svg>
