<?xml version="1.0" encoding="utf-8"?>
<!-- Generator: Adobe Illustrator 19.0.0, SVG Export Plug-In . SVG Version: 6.00 Build 0)  -->
<!DOCTYPE svg PUBLIC "-//W3C//DTD SVG 1.1//EN" "http://www.w3.org/Graphics/SVG/1.1/DTD/svg11.dtd">
<svg version="1.1" id="Layer_1" xmlns="http://www.w3.org/2000/svg" xmlns:xlink="http://www.w3.org/1999/xlink" x="0px" y="0px"
	 viewBox="13 13 50 50" style="enable-background:new 13 13 50 50;" xml:space="preserve">
<style type="text/css">
	.st0{fill:#FFFFFF;}
</style>
<g id="XfjVTm.tif">
	<g>
		<path class="st0" d="M59.6,38.1c0,0.1,0,0.1,0,0.1c-0.2,0.3-0.4,0.6-0.7,1c-2.3,3.6-5.1,6.7-8.6,9.1c-2.8,1.9-5.7,3.2-9,3.7
			c-0.7,0.1-1.4,0.2-2.1,0.3c-0.8,0-1.6,0-2.5,0c-0.1,0-0.2-0.1-0.3-0.1c-2.8-0.2-5.4-1-8-2.3c-4.6-2.4-8.2-5.8-11-10.1
			c-0.4-0.6-0.7-1.1-1.1-1.7c0-0.1,0-0.1,0-0.1c0.1-0.1,0.1-0.2,0.2-0.3c1.2-2.2,2.6-4.3,4.3-6.2c3.7-4,8.1-6.6,13.5-7.6
			c0.7-0.1,1.5-0.2,2.2-0.3c0.9,0,1.7,0,2.6,0c0.7,0.1,1.4,0.1,2.1,0.3c3.3,0.6,6.3,1.9,9,3.9c3.5,2.5,6.3,5.7,8.5,9.3
			C59.2,37.4,59.4,37.8,59.6,38.1z M54,38.2c-0.1-0.1-0.1-0.1-0.1-0.1c-2.2-3-4.7-5.6-8-7.4c-4.2-2.5-8.6-2.9-13.1-1.4
			c-4.5,1.5-8,4.4-10.7,8.4c-0.1,0.3-0.1,0.4,0,0.7c2.5,3.4,5.4,6,9.2,7.8c4,1.9,8.2,2,12.3,0.4C48,44.8,51.3,41.9,54,38.2z"/>
		<path class="st0" d="M45,38c0,4-3.2,7.2-7.1,7.2c-4,0-7.1-3.3-7-7.3c0-3.9,3.2-7.2,7.1-7.2C41.9,30.8,45,34,45,38z"/>
	</g>
</g>
</svg>
