<?xml version="1.0" encoding="utf-8"?>
<!-- Generator: Adobe Illustrator 19.0.0, SVG Export Plug-In . SVG Version: 6.00 Build 0)  -->
<!DOCTYPE svg PUBLIC "-//W3C//DTD SVG 1.1//EN" "http://www.w3.org/Graphics/SVG/1.1/DTD/svg11.dtd">
<svg version="1.1" id="Layer_1" xmlns="http://www.w3.org/2000/svg" xmlns:xlink="http://www.w3.org/1999/xlink" x="0px" y="0px"
	 viewBox="5.3 11.4 50 50" style="enable-background:new 5.3 11.4 50 50;" xml:space="preserve">
<path d="M34.3,21l0.2-1c0-2.2-2-4.2-4.2-4.2S26,17.8,26,20l0.3,1h-12v36h32V21H34.3z M30.3,18.3c0.9,0,1.9,0.6,1.9,1.5
	c0,0.2-0.4,1-0.5,1.2h-3c-0.1-0.2-0.5-0.9-0.5-1.2C28.2,18.9,29.4,18.2,30.3,18.3z M43.3,54h-26V24h5.5l-2,4h19l-2-4h5.5V54z"/>
<rect x="20.3" y="46.2" width="20" height="3"/>
<rect x="20.3" y="39.5" width="20" height="3"/>
<rect x="20.3" y="32.9" width="20" height="3"/>
</svg>
