<?xml version="1.0" encoding="utf-8"?>
<!-- Generator: Adobe Illustrator 19.0.0, SVG Export Plug-In . SVG Version: 6.00 Build 0)  -->
<!DOCTYPE svg PUBLIC "-//W3C//DTD SVG 1.1//EN" "http://www.w3.org/Graphics/SVG/1.1/DTD/svg11.dtd">
<svg version="1.1" id="Layer_1" xmlns="http://www.w3.org/2000/svg" xmlns:xlink="http://www.w3.org/1999/xlink" x="0px" y="0px"
	 viewBox="13 13 50 50" style="enable-background:new 13 13 50 50;" xml:space="preserve">
<path d="M37.8,18.4c2.8,0,5.1,2.3,5.1,5.1s-2.3,5.1-5.1,5.1c-2.8,0-5.1-2.3-5.1-5.1S34.9,18.4,37.8,18.4z M32.6,35.1
	c-0.7,0.3-1.8,3.3-1.2,3.7l-3.3-0.6c2.3-0.8,2.7-2.2,2.9-4.7L30.8,32c0.7-0.6,1.8-2,2.8-2h8.2c1,0,1.9,0.4,2.6,1.1l0.5,1.8
	c0,2.1,1.6,2.7,3.3,3.7l-2.3,0c-0.6,0-1.2,0.1-1.7,0.4c-0.4-0.8-1-1.6-1.3-1.8l0.1,2.6c-2.2,2-3.3,5.8-3.3,5.8l-0.4,1.9l-1.1,0
	c-0.7,0-1.5-0.1-2.2-0.2c-0.6-1.5-1.8-4.2-3.7-5.5L32.6,35.1z M25,28c2.8,0,5.1,2.3,5.1,5.1s-2.3,5.1-5.1,5.1
	c-2.8,0-5.1-2.3-5.1-5.1S22.1,28,25,28z M19.8,44.7c-0.7,0.3-2.1,3.1-2.1,3.1s-0.7,1-1,5.1l-3.1-1l1-5.1c0,0,2.1-7.2,6.2-7.2h8.2
	c4.1,0,6.2,7.2,6.2,7.2l1,5.1l-3.1,1c-0.3-4.1-1-5.1-1-5.1s-1.4-2.7-2.1-3.1l0.4,9.3c-1.6,0.6-3.3,0.9-5,0.9c-2.2,0-4.2-0.5-6-1.4
	L19.8,44.7z M51,26c2.8,0.1,5.1,2.5,5.1,5.3s-2.3,5.1-5.1,5c-2.8-0.1-5.1-2.5-5.1-5.3C45.9,28.1,48.2,25.9,51,26z M45.9,42.6
	c-0.7,0.3-2.1,3-2.1,3s-0.7,1-1,5.1l-3.1-1.1l1-5.1c0,0,2.1-7.1,6.2-7l8.2,0.3c4.1,0.1,6.2,7.4,6.2,7.4l1,5.2l-3.1,0.9
	c-0.3-4.1-1-5.2-1-5.2s-1.4-2.8-2.1-3.2l0.4,9.4c-1.6,0.6-3.3,0.8-5,0.8c-2.2-0.1-4.2-0.6-6-1.6L45.9,42.6z"/>
</svg>
