<?xml version="1.0" encoding="utf-8"?>
<!-- Generator: Adobe Illustrator 19.0.0, SVG Export Plug-In . SVG Version: 6.00 Build 0)  -->
<!DOCTYPE svg PUBLIC "-//W3C//DTD SVG 1.1//EN" "http://www.w3.org/Graphics/SVG/1.1/DTD/svg11.dtd">
<svg version="1.1" id="Layer_1" xmlns="http://www.w3.org/2000/svg" xmlns:xlink="http://www.w3.org/1999/xlink" x="0px" y="0px"
	 viewBox="0 0 76 76" style="enable-background:new 0 0 76 76;" xml:space="preserve">
<style type="text/css">
	.st0{fill:#9D9D9C;}
</style>
<g>
	<path class="st0" d="M19,34v8h24.7l-10,10h10.5l14-14l-14-14H33.8l10,10H19z"/>
</g>
<path class="st0" d="M38,74.3C18,74.3,1.7,58,1.7,38S18,1.7,38,1.7S74.3,18,74.3,38S58,74.3,38,74.3z M38,10.3
	c-15.3,0-27.7,12.4-27.7,27.7c0,15.3,12.4,27.7,27.7,27.7c15.3,0,27.7-12.4,27.7-27.7C65.7,22.7,53.3,10.3,38,10.3z"/>
</svg>
