<?xml version="1.0" encoding="utf-8"?>
<!-- Generator: Adobe Illustrator 19.0.0, SVG Export Plug-In . SVG Version: 6.00 Build 0)  -->
<!DOCTYPE svg PUBLIC "-//W3C//DTD SVG 1.1//EN" "http://www.w3.org/Graphics/SVG/1.1/DTD/svg11.dtd">
<svg version="1.1" id="Layer_1" xmlns="http://www.w3.org/2000/svg" xmlns:xlink="http://www.w3.org/1999/xlink" x="0px" y="0px"
	 viewBox="13 13 50 50" style="enable-background:new 13 13 50 50;" xml:space="preserve">
<path d="M42.5,22C49.4,22,55,27.6,55,34.5S49.4,47,42.5,47c-2.4,0-4.6-0.7-6.5-1.8l-9,9c-1.2,1.2-3.1,1.2-4.2,0
	c-1.2-1.2-1.2-3.1,0-4.2l9.1-9.1c-1.1-1.9-1.8-4.1-1.8-6.5C30,27.6,35.6,22,42.5,22z M42.5,26c-4.7,0-8.5,3.8-8.5,8.5
	s3.8,8.5,8.5,8.5s8.5-3.8,8.5-8.5S47.2,26,42.5,26z"/>
</svg>
