<?xml version="1.0" encoding="utf-8"?>
<!-- Generator: Adobe Illustrator 19.0.0, SVG Export Plug-In . SVG Version: 6.00 Build 0)  -->
<!DOCTYPE svg PUBLIC "-//W3C//DTD SVG 1.1//EN" "http://www.w3.org/Graphics/SVG/1.1/DTD/svg11.dtd">
<svg version="1.1" id="Layer_1" xmlns="http://www.w3.org/2000/svg" xmlns:xlink="http://www.w3.org/1999/xlink" x="0px" y="0px"
	 viewBox="-246 395.9 50 50" style="enable-background:new -246 395.9 50 50;" xml:space="preserve">
<path d="M-237,401.9h2v38h-2V401.9z M-233,439.9v-38h28v38H-233z M-210.9,427.3l-2.4-3.4c-0.1-0.2-0.3-0.3-0.5-0.4
	c-0.2-0.1-0.4-0.1-0.6,0l-0.4,0.2l-1.5,1.1l-0.5,0.2c-0.2,0-0.4,0-0.7,0c-0.2-0.1-0.4-0.2-0.6-0.4l-4.1-5.8l-0.2-0.5
	c0-0.2,0-0.5,0-0.7c0.1-0.2,0.2-0.4,0.4-0.6l1.5-1.1c0.2-0.1,0.3-0.3,0.4-0.5c0.1-0.2,0.1-0.4,0-0.6l-0.2-0.4l-2.5-3.4
	c-0.1-0.2-0.3-0.3-0.5-0.4c-0.2-0.1-0.4-0.1-0.6,0l-0.4,0.2l-0.8,0.6c-0.5,0.4-0.9,0.8-1.2,1.2c-0.3,0.5-0.5,1-0.7,1.5
	c-0.1,0.5-0.2,1.1-0.2,1.7c0,0.6,0.1,1.2,0.2,1.8l0.4,1.4l0.6,1.4l0.4,0.9l0.6,1.1l1,1.5l1.2,1.5l1,1.2l0.9,1c0.5,0.5,1,1,1.5,1.4
	c0.5,0.4,1.1,0.7,1.7,1c0.6,0.2,1.2,0.4,1.7,0.5c0.6,0.1,1.2,0,1.7-0.1l1-0.3l0.9-0.6l0.8-0.6c0.2-0.1,0.3-0.3,0.4-0.5
	c0.1-0.2,0.1-0.4,0-0.6L-210.9,427.3z"/>
</svg>
