<?xml version="1.0" encoding="utf-8"?>
<!-- Generator: Adobe Illustrator 19.0.0, SVG Export Plug-In . SVG Version: 6.00 Build 0)  -->
<!DOCTYPE svg PUBLIC "-//W3C//DTD SVG 1.1//EN" "http://www.w3.org/Graphics/SVG/1.1/DTD/svg11.dtd">
<svg version="1.1" id="Layer_1" xmlns="http://www.w3.org/2000/svg" xmlns:xlink="http://www.w3.org/1999/xlink" x="0px" y="0px"
	 viewBox="13 13 50 50" style="enable-background:new 13 13 50 50;" xml:space="preserve">
<style type="text/css">
	.st0{fill:#B13100;}
</style>
<path class="st0" d="M24.4,23.1h27.2c0.9,0,1.3,3.8,1.3,3.8H23.1C23.1,26.9,23.4,23.1,24.4,23.1z M35.4,18.9h5.1
	c0.5,0,1.7,1.2,1.7,1.7c0,0.5-1.2,1.7-1.7,1.7h-5.1c-0.5,0-1.7-1.2-1.7-1.7C33.7,20.1,35,18.9,35.4,18.9z M26.9,28.2h22.1
	c0.9,0,1.7,0.8,1.7,1.7l-1.7,25.5c0,0.9-0.8,1.7-1.7,1.7H28.6c-0.9,0-1.7-0.8-1.7-1.7l-1.7-25.5C25.2,29,26,28.2,26.9,28.2z
	 M29.5,31.6l0.4,22.1h3l-0.4-22.1H29.5z M36.3,31.6v22.1h3.4V31.6H36.3z M43.5,31.6l-0.4,22.1h3l0.4-22.1H43.5z"/>
</svg>
