<?xml version="1.0" encoding="utf-8"?>
<!-- Generator: Adobe Illustrator 19.0.0, SVG Export Plug-In . SVG Version: 6.00 Build 0)  -->
<!DOCTYPE svg PUBLIC "-//W3C//DTD SVG 1.1//EN" "http://www.w3.org/Graphics/SVG/1.1/DTD/svg11.dtd">
<svg version="1.1" id="Layer_1" xmlns="http://www.w3.org/2000/svg" xmlns:xlink="http://www.w3.org/1999/xlink" x="0px" y="0px"
	 viewBox="13 13 50 50" style="enable-background:new 13 13 50 50;" xml:space="preserve">
<path d="M27.5,21.9l5.5-2.4l1.7,3.9c1.9-0.4,3.8-0.5,5.7-0.1l1.5-4l5.6,2.2l-1.5,4c1.6,1,3,2.3,4.1,3.9l3.9-1.7l2.4,5.5l-3.9,1.7
	c0.4,1.9,0.5,3.8,0.1,5.7l4,1.5l-2.2,5.6l-4-1.5c-1,1.6-2.3,3-3.9,4.1l1.7,3.9L43,56.6l-1.7-3.9c-1.9,0.4-3.8,0.5-5.7,0.1l-1.5,4
	l-5.6-2.2l1.5-4c-1.6-1-3-2.3-4.1-3.9l-3.9,1.7L19.4,43l3.9-1.7c-0.4-1.9-0.5-3.8-0.1-5.7l-4-1.5l2.2-5.6l4,1.5c1-1.6,2.3-3,3.9-4.1
	L27.5,21.9z M34.3,29.8c-4.5,2-6.6,7.3-4.6,11.9c2,4.5,7.3,6.6,11.9,4.6c4.5-2,6.6-7.3,4.6-11.9C44.2,29.8,38.9,27.8,34.3,29.8z"/>
</svg>
